<?xml version="1.0" encoding="UTF-8" standalone="no"?>
<!-- Generator: Adobe Illustrator 19.0.0, SVG Export Plug-In . SVG Version: 6.00 Build 0)  -->

<svg
   xmlns:dc="http://purl.org/dc/elements/1.1/"
   xmlns:cc="http://creativecommons.org/ns#"
   xmlns:rdf="http://www.w3.org/1999/02/22-rdf-syntax-ns#"
   xmlns:svg="http://www.w3.org/2000/svg"
   xmlns="http://www.w3.org/2000/svg"
   xmlns:sodipodi="http://sodipodi.sourceforge.net/DTD/sodipodi-0.dtd"
   xmlns:inkscape="http://www.inkscape.org/namespaces/inkscape"
   version="1.1"
   id="Layer_1"
   x="0px"
   y="0px"
   viewBox="0 0 183.10001 88.199997"
   xml:space="preserve"
   inkscape:version="0.91 r13725"
   sodipodi:docname="materialize.svg"
   width="183.10001"
   height="88.199997"><metadata
     id="metadata4626"><rdf:RDF><cc:Work
         rdf:about=""><dc:format>image/svg+xml</dc:format><dc:type
           rdf:resource="http://purl.org/dc/dcmitype/StillImage" /><dc:title></dc:title></cc:Work></rdf:RDF></metadata><defs
     id="defs4624" /><sodipodi:namedview
     pagecolor="#ffffff"
     bordercolor="#666666"
     borderopacity="1"
     objecttolerance="10"
     gridtolerance="10"
     guidetolerance="10"
     inkscape:pageopacity="0"
     inkscape:pageshadow="2"
     inkscape:window-width="2880"
     inkscape:window-height="1673"
     id="namedview4622"
     showgrid="false"
     fit-margin-top="0"
     fit-margin-left="0"
     fit-margin-right="0"
     fit-margin-bottom="0"
     inkscape:zoom="3.6225"
     inkscape:cx="88.6"
     inkscape:cy="1.842098"
     inkscape:window-x="0"
     inkscape:window-y="31"
     inkscape:window-maximized="1"
     inkscape:current-layer="Layer_1" /><style
     type="text/css"
     id="style4402">
	.st0{fill:#722771;}
	.st1{fill:#8ED4DB;}
	.st2{fill:#35ACDF;}
	.st3{fill:#FCED00;}
	.st4{fill:#22C0E5;}
	.st5{fill:#416AB3;}
	.st6{fill:#FDD700;}
	.st7{fill:#4C4EA1;}
	.st8{fill:#D96327;}
	.st9{fill:#BF2126;}
	.st10{fill:#E6067F;}
	.st11{fill:#E53325;}
	.st12{fill:#EC4F7E;}
	.st13{fill:#F5B3D1;}
	.st14{fill:#F29420;}
	.st15{fill:#FAB31A;}
</style><g
     id="g4406"
     transform="translate(-161.4,-102.6)"><g
       id="g4408"><polygon
         style="fill:#722771"
         id="polygon4410"
         points="202.9,170.4 180.9,170.4 191.9,151.4 "
         class="st0" /><g
         id="g4412"><polygon
           style="fill:#8ed4db"
           id="polygon4414"
           points="161.4,155.5 161.4,137.9 176.6,146.7 "
           class="st1" /><polygon
           style="fill:#35acdf"
           id="polygon4416"
           points="161.4,173.2 161.4,155.5 176.6,164.3 "
           class="st2" /><polygon
           style="fill:#fced00"
           id="polygon4418"
           points="176.6,129.1 176.6,146.7 161.4,137.9 "
           class="st3" /><polygon
           style="fill:#22c0e5"
           id="polygon4420"
           points="176.6,146.7 176.6,164.3 161.4,155.5 "
           class="st4" /><polygon
           style="fill:#416ab3"
           id="polygon4422"
           points="176.6,164.3 176.6,182 161.4,173.2 "
           class="st5" /><polygon
           style="fill:#fdd700"
           id="polygon4424"
           points="176.6,146.7 176.6,129.1 191.9,137.9 "
           class="st6" /><polygon
           style="fill:#4c4ea1"
           id="polygon4426"
           points="161.4,190.8 161.4,173.2 176.6,182 "
           class="st7" /><polygon
           style="fill:#d96327"
           id="polygon4428"
           points="207.2,129.1 207.2,146.7 191.9,137.9 "
           class="st8" /><polygon
           style="fill:#bf2126"
           id="polygon4430"
           points="222.4,137.9 222.4,155.5 207.2,146.7 "
           class="st9" /><polygon
           style="fill:#e6067f"
           id="polygon4432"
           points="222.4,155.5 222.4,173.2 207.2,164.3 "
           class="st10" /><polygon
           style="fill:#e53325"
           id="polygon4434"
           points="207.2,146.7 207.2,129.1 222.4,137.9 "
           class="st11" /><polygon
           style="fill:#ec4f7e"
           id="polygon4436"
           points="207.2,164.3 207.2,146.7 222.4,155.5 "
           class="st12" /><polygon
           style="fill:#f5b3d1"
           id="polygon4438"
           points="207.2,182 207.2,164.3 222.4,173.2 "
           class="st13" /><polygon
           style="fill:#f29420"
           id="polygon4440"
           points="191.9,137.9 191.9,120.3 207.2,129.1 "
           class="st14" /><polygon
           style="fill:#fab31a"
           id="polygon4442"
           points="191.9,120.3 191.9,137.9 176.6,129.1 "
           class="st15" /><polygon
           style="fill:#8ed4db"
           id="polygon4444"
           points="222.4,155.5 222.4,137.9 207.1,146.7 "
           class="st1" /><polygon
           style="fill:#35acdf"
           id="polygon4446"
           points="222.4,173.2 222.4,155.5 207.1,164.3 "
           class="st2" /><polygon
           style="fill:#fced00"
           id="polygon4448"
           points="207.1,129.1 207.1,146.7 222.4,137.9 "
           class="st3" /><polygon
           style="fill:#22c0e5"
           id="polygon4450"
           points="207.1,146.7 207.1,164.3 222.4,155.5 "
           class="st4" /><polygon
           style="fill:#416ab3"
           id="polygon4452"
           points="207.1,164.3 207.1,182 222.4,173.2 "
           class="st5" /><polygon
           style="fill:#fdd700"
           id="polygon4454"
           points="207.1,146.7 207.1,129.1 191.9,137.9 "
           class="st6" /><polygon
           style="fill:#4c4ea1"
           id="polygon4456"
           points="222.4,190.8 222.4,173.2 207.1,182 "
           class="st7" /><polygon
           style="fill:#d96327"
           id="polygon4458"
           points="176.6,129.1 176.6,146.7 191.9,137.9 "
           class="st8" /><polygon
           style="fill:#bf2126"
           id="polygon4460"
           points="161.4,137.9 161.4,155.5 176.6,146.7 "
           class="st9" /><polygon
           style="fill:#e6067f"
           id="polygon4462"
           points="161.4,155.5 161.4,173.2 176.6,164.3 "
           class="st10" /><polygon
           style="fill:#e53325"
           id="polygon4464"
           points="176.6,146.7 176.6,129.1 161.4,137.9 "
           class="st11" /><polygon
           style="fill:#ec4f7e"
           id="polygon4466"
           points="176.6,164.3 176.6,146.7 161.4,155.5 "
           class="st12" /><polygon
           style="fill:#f5b3d1"
           id="polygon4468"
           points="176.6,182 176.6,164.3 161.4,173.2 "
           class="st13" /><polygon
           style="fill:#f29420"
           id="polygon4470"
           points="191.9,137.9 191.9,120.3 176.6,129.1 "
           class="st14" /><polygon
           style="fill:#fab31a"
           id="polygon4472"
           points="191.9,120.3 191.9,137.9 207.1,129.1 "
           class="st15" /></g></g><g
       id="g4474"><polygon
         style="fill:#722771"
         id="polygon4476"
         points="241.9,152.8 263.9,152.8 252.9,133.7 "
         class="st0" /><g
         id="g4478"><polygon
           style="fill:#8ed4db"
           id="polygon4480"
           points="283.5,137.9 283.5,120.3 268.2,129.1 "
           class="st1" /><polygon
           style="fill:#35acdf"
           id="polygon4482"
           points="283.5,155.5 283.5,137.9 268.2,146.7 "
           class="st2" /><polygon
           style="fill:#fced00"
           id="polygon4484"
           points="268.2,111.4 268.2,129.1 283.5,120.3 "
           class="st3" /><polygon
           style="fill:#22c0e5"
           id="polygon4486"
           points="268.2,129.1 268.2,146.7 283.4,137.9 "
           class="st4" /><polygon
           style="fill:#416ab3"
           id="polygon4488"
           points="268.2,146.7 268.2,164.3 283.4,155.5 "
           class="st5" /><polygon
           style="fill:#fdd700"
           id="polygon4490"
           points="268.2,129.1 268.2,111.4 252.9,120.3 "
           class="st6" /><polygon
           style="fill:#4c4ea1"
           id="polygon4492"
           points="283.4,173.2 283.4,155.5 268.2,164.3 "
           class="st7" /><polygon
           style="fill:#d96327"
           id="polygon4494"
           points="237.6,111.4 237.6,129.1 252.9,120.3 "
           class="st8" /><polygon
           style="fill:#bf2126"
           id="polygon4496"
           points="222.4,120.3 222.4,137.9 237.6,129.1 "
           class="st9" /><polygon
           style="fill:#e6067f"
           id="polygon4498"
           points="222.4,137.9 222.4,155.5 237.6,146.7 "
           class="st10" /><polygon
           style="fill:#e53325"
           id="polygon4500"
           points="237.6,129.1 237.6,111.4 222.4,120.3 "
           class="st11" /><polygon
           style="fill:#ec4f7e"
           id="polygon4502"
           points="237.6,146.7 237.6,129.1 222.4,137.9 "
           class="st12" /><polygon
           style="fill:#f5b3d1"
           id="polygon4504"
           points="237.6,164.3 237.6,146.7 222.4,155.5 "
           class="st13" /><polygon
           style="fill:#f29420"
           id="polygon4506"
           points="252.9,120.3 252.9,102.6 237.6,111.4 "
           class="st14" /><polygon
           style="fill:#fab31a"
           id="polygon4508"
           points="252.9,102.6 252.9,120.3 268.2,111.4 "
           class="st15" /><polygon
           style="fill:#8ed4db"
           id="polygon4510"
           points="222.4,137.9 222.4,120.3 237.7,129.1 "
           class="st1" /><polygon
           style="fill:#35acdf"
           id="polygon4512"
           points="222.4,155.5 222.4,137.9 237.7,146.7 "
           class="st2" /><polygon
           style="fill:#fced00"
           id="polygon4514"
           points="237.7,111.4 237.7,129.1 222.4,120.3 "
           class="st3" /><polygon
           style="fill:#22c0e5"
           id="polygon4516"
           points="237.7,129.1 237.7,146.7 222.4,137.9 "
           class="st4" /><polygon
           style="fill:#416ab3"
           id="polygon4518"
           points="237.7,146.7 237.7,164.3 222.4,155.5 "
           class="st5" /><polygon
           style="fill:#fdd700"
           id="polygon4520"
           points="237.7,129.1 237.7,111.4 252.9,120.3 "
           class="st6" /><polygon
           style="fill:#4c4ea1"
           id="polygon4522"
           points="222.4,173.2 222.4,155.5 237.7,164.3 "
           class="st7" /><polygon
           style="fill:#d96327"
           id="polygon4524"
           points="268.2,111.4 268.2,129.1 252.9,120.3 "
           class="st8" /><polygon
           style="fill:#bf2126"
           id="polygon4526"
           points="283.5,120.3 283.5,137.9 268.2,129.1 "
           class="st9" /><polygon
           style="fill:#e6067f"
           id="polygon4528"
           points="283.5,137.9 283.5,155.5 268.2,146.7 "
           class="st10" /><polygon
           style="fill:#e53325"
           id="polygon4530"
           points="268.2,129.1 268.2,111.4 283.5,120.3 "
           class="st11" /><polygon
           style="fill:#ec4f7e"
           id="polygon4532"
           points="268.2,146.7 268.2,129.1 283.5,137.9 "
           class="st12" /><polygon
           style="fill:#f5b3d1"
           id="polygon4534"
           points="268.2,164.3 268.2,146.7 283.5,155.5 "
           class="st13" /><polygon
           style="fill:#f29420"
           id="polygon4536"
           points="252.9,120.3 252.9,102.6 268.2,111.4 "
           class="st14" /><polygon
           style="fill:#fab31a"
           id="polygon4538"
           points="252.9,102.6 252.9,120.3 237.7,111.4 "
           class="st15" /></g></g><g
       id="g4540"><polygon
         style="fill:#722771"
         id="polygon4542"
         points="302.9,170.4 324.9,170.4 313.9,151.4 "
         class="st0" /><g
         id="g4544"><polygon
           style="fill:#8ed4db"
           id="polygon4546"
           points="344.5,155.5 344.5,137.9 329.2,146.7 "
           class="st1" /><polygon
           style="fill:#35acdf"
           id="polygon4548"
           points="344.5,173.2 344.5,155.5 329.2,164.3 "
           class="st2" /><polygon
           style="fill:#fced00"
           id="polygon4550"
           points="329.2,129.1 329.2,146.7 344.5,137.9 "
           class="st3" /><polygon
           style="fill:#22c0e5"
           id="polygon4552"
           points="329.2,146.7 329.2,164.3 344.4,155.5 "
           class="st4" /><polygon
           style="fill:#416ab3"
           id="polygon4554"
           points="329.2,164.3 329.2,182 344.4,173.2 "
           class="st5" /><polygon
           style="fill:#fdd700"
           id="polygon4556"
           points="329.2,146.7 329.2,129.1 313.9,137.9 "
           class="st6" /><polygon
           style="fill:#4c4ea1"
           id="polygon4558"
           points="344.5,190.8 344.5,173.2 329.2,182 "
           class="st7" /><polygon
           style="fill:#d96327"
           id="polygon4560"
           points="298.7,129.1 298.7,146.7 313.9,137.9 "
           class="st8" /><polygon
           style="fill:#bf2126"
           id="polygon4562"
           points="283.4,137.9 283.4,155.5 298.7,146.7 "
           class="st9" /><polygon
           style="fill:#e6067f"
           id="polygon4564"
           points="283.4,155.5 283.4,173.2 298.7,164.3 "
           class="st10" /><polygon
           style="fill:#e53325"
           id="polygon4566"
           points="298.7,146.7 298.7,129.1 283.4,137.9 "
           class="st11" /><polygon
           style="fill:#ec4f7e"
           id="polygon4568"
           points="298.7,164.3 298.7,146.7 283.4,155.5 "
           class="st12" /><polygon
           style="fill:#f5b3d1"
           id="polygon4570"
           points="298.7,182 298.7,164.3 283.4,173.2 "
           class="st13" /><polygon
           style="fill:#f29420"
           id="polygon4572"
           points="313.9,137.9 313.9,120.3 298.7,129.1 "
           class="st14" /><polygon
           style="fill:#fab31a"
           id="polygon4574"
           points="313.9,120.3 313.9,137.9 329.2,129.1 "
           class="st15" /><polygon
           style="fill:#8ed4db"
           id="polygon4576"
           points="283.4,155.5 283.4,137.9 298.7,146.7 "
           class="st1" /><polygon
           style="fill:#35acdf"
           id="polygon4578"
           points="283.4,173.2 283.4,155.5 298.7,164.3 "
           class="st2" /><polygon
           style="fill:#fced00"
           id="polygon4580"
           points="298.7,129.1 298.7,146.7 283.4,137.9 "
           class="st3" /><polygon
           style="fill:#22c0e5"
           id="polygon4582"
           points="298.7,146.7 298.7,164.3 283.5,155.5 "
           class="st4" /><polygon
           style="fill:#416ab3"
           id="polygon4584"
           points="298.7,164.3 298.7,182 283.5,173.2 "
           class="st5" /><polygon
           style="fill:#fdd700"
           id="polygon4586"
           points="298.7,146.7 298.7,129.1 313.9,137.9 "
           class="st6" /><polygon
           style="fill:#4c4ea1"
           id="polygon4588"
           points="283.4,190.8 283.4,173.2 298.7,182 "
           class="st7" /><polygon
           style="fill:#d96327"
           id="polygon4590"
           points="329.2,129.1 329.2,146.7 313.9,137.9 "
           class="st8" /><polygon
           style="fill:#bf2126"
           id="polygon4592"
           points="344.5,137.9 344.5,155.5 329.2,146.7 "
           class="st9" /><polygon
           style="fill:#e6067f"
           id="polygon4594"
           points="344.5,155.5 344.5,173.2 329.2,164.3 "
           class="st10" /><polygon
           style="fill:#e53325"
           id="polygon4596"
           points="329.2,146.7 329.2,129.1 344.5,137.9 "
           class="st11" /><polygon
           style="fill:#ec4f7e"
           id="polygon4598"
           points="329.2,164.3 329.2,146.7 344.5,155.5 "
           class="st12" /><polygon
           style="fill:#f5b3d1"
           id="polygon4600"
           points="329.2,182 329.2,164.3 344.5,173.2 "
           class="st13" /><polygon
           style="fill:#f29420"
           id="polygon4602"
           points="313.9,137.9 313.9,120.3 329.2,129.1 "
           class="st14" /><polygon
           style="fill:#fab31a"
           id="polygon4604"
           points="313.9,120.3 313.9,137.9 298.7,129.1 "
           class="st15" /></g></g></g></svg>